<svg xmlns="http://www.w3.org/2000/svg" xmlns:xlink="http://www.w3.org/1999/xlink" width="96" height="87" viewBox="0 0 96 87">
  <defs>
    <linearGradient id="linear-gradient" x1="0.5" x2="0.5" y2="1" gradientUnits="objectBoundingBox">
      <stop offset="0" stop-color="#f2f2f2"/>
      <stop offset="0" stop-color="#ededed"/>
      <stop offset="1" stop-color="#797979"/>
    </linearGradient>
  </defs>
  <g id="Group_84" data-name="Group 84" transform="translate(-132 -554)">
    <path id="Rectangle_50" data-name="Rectangle 50" d="M47.525,0h0A48.475,48.475,0,0,1,96,48.475V87a0,0,0,0,1,0,0H0a0,0,0,0,1,0,0V47.525A47.525,47.525,0,0,1,47.525,0Z" transform="translate(132 554)" fill="url(#linear-gradient)"/>
    <g id="Group_72" data-name="Group 72" transform="translate(-9224 1163.096)">
      <g id="alarm_1_" data-name="alarm (1)" transform="translate(9370.849 -600.19)">
        <path id="Path_84" data-name="Path 84" d="M163.794,442.78H102.473L107.481,428h51.306Z" transform="translate(-100.476 -371.683)" fill="#1a181a"/>
        <path id="Path_85" data-name="Path 85" d="M185.734,210.317H139V179.36a23.365,23.365,0,0,1,23.365-23.365h0a23.365,23.365,0,0,1,23.365,23.365Z" transform="translate(-129.711 -153.998)" fill="#d30b19"/>
        <g id="Group_71" data-name="Group 71" transform="translate(28.664 14.582)">
          <path id="Path_86" data-name="Path 86" d="M239.995,236.583h0A3.994,3.994,0,0,1,236,232.589V223a3.994,3.994,0,0,1,3.994-3.994h0A3.994,3.994,0,0,1,243.989,223v9.586A3.994,3.994,0,0,1,239.995,236.583Z" transform="translate(-236.001 -219.009)" fill="#fff"/>
          <path id="Path_87" data-name="Path 87" d="M239.995,354.993h0A3.994,3.994,0,0,1,236,351h0a3.994,3.994,0,0,1,3.994-3.994h0A3.994,3.994,0,0,1,243.989,351h0A3.994,3.994,0,0,1,239.995,354.993Z" transform="translate(-236.001 -321.443)" fill="#fff"/>
        </g>
        <path id="Path_88" data-name="Path 88" d="M152.675,201.673a2,2,0,0,0-1.891-1.356h-.291v-28.96a25.362,25.362,0,1,0-50.725,0v28.96h-.291a2,2,0,0,0-1.891,1.356l-5.007,14.778a2,2,0,0,0,1.891,2.638h61.321a2,2,0,0,0,1.891-2.638Zm-48.912-30.316a21.368,21.368,0,1,1,42.736,0v28.96H103.762v-28.96ZM97.255,215.1l3.654-10.784h48.442l3.654,10.784Z" transform="translate(-92.473 -145.995)"/>
        <path id="Path_101" data-name="Path 101" d="M231.992,209.008A6,6,0,0,0,226,215v9.586a5.991,5.991,0,1,0,11.982,0V215A6,6,0,0,0,231.992,209.008Zm2,15.577a2,2,0,1,1-3.994,0V215a2,2,0,1,1,3.994,0Z" transform="translate(-199.334 -196.424)"/>
        <path id="Path_102" data-name="Path 102" d="M231.992,337.005A5.991,5.991,0,1,0,237.983,343,6,6,0,0,0,231.992,337.005Zm0,7.988a2,2,0,1,1,2-2A2,2,0,0,1,231.992,344.993Z" transform="translate(-199.334 -298.859)"/>
      </g>
    </g>
  </g>
</svg>
