<svg height="480pt" viewBox="0 -63 480 479" width="480pt" xmlns="http://www.w3.org/2000/svg"><path d="m471.585938 141.972656c-1.089844-3.265625-4.144532-5.46875-7.585938-5.472656h-32c-4.417969 0-8 3.582031-8 8v40h-16v-64c0-4.417969-3.582031-8-8-8h-64v-40c0-4.417969-3.582031-8-8-8h-56v-16h104c4.417969 0 8-3.582031 8-8v-32c0-4.417969-3.582031-8-8-8h-256c-4.417969 0-8 3.582031-8 8v32c0 4.417969 3.582031 8 8 8h104v16h-56c-4.417969 0-8 3.582031-8 8v43.71875l-42.398438 28.28125h-45.601562c-4.417969 0-8 3.582031-8 8v24h-16v-64c0-4.417969-3.582031-8-8-8h-32c-4.417969 0-8 3.582031-8 8v200c0 4.417969 3.582031 8 8 8h32c4.417969 0 8-3.582031 8-8v-56h16v24c0 4.417969 3.582031 8 8 8h45.601562l45.984376 30.65625c1.308593.871094 2.84375 1.335938 4.414062 1.34375h16v24c0 4.417969 3.582031 8 8 8h112c4.417969 0 8-3.582031 8-8v-24h88c4.417969 0 8-3.582031 8-8v-64h16v40c0 4.417969 3.582031 8 8 8h32c3.441406-.003906 6.496094-2.207031 7.585938-5.472656l8-24c.273437-.8125.410156-1.667969.414062-2.527344v-96c-.003906-.859375-.140625-1.714844-.414062-2.527344zm-343.585938-125.472656h240v16h-240zm112 32h16v16h-16zm-208 256h-16v-184h16zm16-64v-48h16v48zm76.441406 33.34375c-1.316406-.875-2.863281-1.339844-4.441406-1.34375h-40v-112h32v48c0 4.417969 3.582031 8 8 8s8-3.582031 8-8v-51.71875l44.441406-29.601562c2.230469-1.488282 3.566406-3.996094 3.558594-6.679688v-40h144v32h-80c-4.417969 0-8 3.582031-8 8s3.582031 8 8 8h120v176h-189.601562zm171.558594 62.65625h-96v-16h96zm96-32h-16v-176h16zm16-72v-32h16v32zm56 30.703125-5.769531 17.296875h-18.230469v-128h18.230469l5.769531 17.296875zm0 0"/><path d="m200 128.5h8c4.417969 0 8-3.582031 8-8s-3.582031-8-8-8h-8c-4.417969 0-8 3.582031-8 8s3.582031 8 8 8zm0 0"/><path d="m120 232.5c-4.417969 0-8 3.582031-8 8v8c0 4.417969 3.582031 8 8 8s8-3.582031 8-8v-8c0-4.417969-3.582031-8-8-8zm0 0"/><path d="m152 176.5h184c4.417969 0 8-3.582031 8-8s-3.582031-8-8-8h-184c-4.417969 0-8 3.582031-8 8s3.582031 8 8 8zm0 0"/><path d="m152 208.5h184c4.417969 0 8-3.582031 8-8s-3.582031-8-8-8h-184c-4.417969 0-8 3.582031-8 8s3.582031 8 8 8zm0 0"/><path d="m152 240.5h184c4.417969 0 8-3.582031 8-8s-3.582031-8-8-8h-184c-4.417969 0-8 3.582031-8 8s3.582031 8 8 8zm0 0"/><path d="m344 264.5c0-4.417969-3.582031-8-8-8h-184c-4.417969 0-8 3.582031-8 8s3.582031 8 8 8h184c4.417969 0 8-3.582031 8-8zm0 0"/></svg>